<?xml version="1.0" encoding="UTF-8"?>
<!DOCTYPE svg PUBLIC "-//W3C//DTD SVG 1.1//EN" "http://www.w3.org/Graphics/SVG/1.1/DTD/svg11.dtd">
<!-- Creator: CorelDRAW 2020 (64-Bit) -->
<svg xmlns="http://www.w3.org/2000/svg" xml:space="preserve" width="210mm" height="297mm" version="1.1" style="shape-rendering:geometricPrecision; text-rendering:geometricPrecision; image-rendering:optimizeQuality; fill-rule:evenodd; clip-rule:evenodd"
viewBox="0 0 21000 29700"
 xmlns:xlink="http://www.w3.org/1999/xlink"
 xmlns:xodm="http://www.corel.com/coreldraw/odm/2003">
 <defs>
  <style type="text/css">
   <![CDATA[
    .fil1 {fill:#373435}
    .fil0 {fill:#FEFEFE}
   ]]>
  </style>
 </defs>
 <g id="Capa_x0020_1">
  <metadata id="CorelCorpID_0Corel-Layer"/>
  <polygon class="fil0" points="21639.63,19466.44 35266.04,19466.44 35266.04,6118.12 21639.63,6118.12 "/>
  <path class="fil1" d="M9181.65 3480.62c-168.28,-175.06 -637.18,107.2 -865.97,197.01 -305.85,120.05 -1526.07,575.55 -1722.96,711.13 -351.21,241.84 -327.24,602.3 -137.38,827.8 201.26,239.04 609.05,198.09 993.43,198.08l3706.67 0c669.73,0 1868.65,199.63 1793.16,-623.21 -33.27,-362.55 -328.48,-444.49 -627.43,-568.34l-2607.58 -1065.23c-942.69,-381.4 -282.11,-924.03 89.63,-726 230.59,122.83 123.1,266.65 224.39,414.29 207.83,302.94 445.56,-220.49 81.42,-579.09 -580.63,-571.79 -1477.25,185.93 -1102.16,786 152.92,244.63 441.41,337.4 765.19,470l2609.63 1061.06c141.29,62.38 292.52,142.74 239.17,324.77 -57.21,195.2 -237.71,188.78 -440.12,187.76 -1623.53,-8.18 -3249.46,-2.78 -4873.2,-1.24 -171.75,0.17 -407.41,37.5 -542.93,-46.69 -150.32,-93.39 -148.15,-269.74 -28.79,-371.3 115.75,-98.5 670.52,-303.35 861.31,-377.32l1323.54 -512.94c164.2,-62.78 378.66,-106.6 260.98,-306.54z"/>
 </g>
</svg>
